{"title":"Rugby.Union.Warriors.v.Ulster.2013.02.22.pdtv.x264","uid":8179806,"size":1696450582,"categoryP":"video","categoryS":"tv_shows","magnet":"?xt=urn:btih:f7b70b207b1c3c500ccf7af304461f168c7f8d96&amp;dn=Rugby.Union.Warriors.v.Ulster.2013.02.22.pdtv.x264&amp;tr=udp%3A%2F%2Ftracker.openbittorrent.com%3A80&amp;tr=udp%3A%2F%2Fopen.demonii.com%3A1337&amp;tr=udp%3A%2F%2Ftracker.coppersurfer.tk%3A6969&amp;tr=udp%3A%2F%2Fexodus.desync.com%3A6969","seeders":0,"leechers":0,"uploader":"rugbybill","files":3,"time":1361604395,"description":"SPORT: Ulster Rugby Live\nOn: BBC 2 Northern Ireland\nDate: Friday 22nd February 2013\nTime: 19:30 to 21:30 \n\nUlster travel to Scotstoun Stadium to take on Glasgow Warriors in the Rabo Direct Pro 12. Stephen Watson presents live coverage of the game while Jim Neilly and Ryan Constable provide the commentary. \n\n\n\nGeneral\nComplete name: 2013.02.22.Warriors.v.Ulster.pdtv.x264.mp4\nFormat: MPEG-4\nFormat profile: Base Media\nCodec ID: isom\nFile size: 1.58 GiB\nDuration: 2h 2mn\nOverall bit rate mode: Variable\nOverall bit rate: 1 851 Kbps\n\nVideo\nID: 1\nFormat: AVC\nFormat/Info: Advanced Video Codec\nFormat profile: &lt;a class=&quot;__cf_email__&quot; href=&quot;/cdn-cgi/l/email-protection&quot; data-cfemail=&quot;145c7d737c5458273a25&quot;&gt;[email&amp;#160;protected]&lt;/a&gt;&lt;script cf-hash='f9e31' type=&quot;text/javascript&quot;&gt;\n/* &lt;![CDATA[ */!function(){try{var t=&quot;currentScript&quot;in document?document.currentScript:function(){for(var t=document.getElementsByTagName(&quot;script&quot;),e=t.length;e--;)if(t[e].getAttribute(&quot;cf-hash&quot;))return t[e]}();if(t&amp;&amp;t.previousSibling){var e,r,n,i,c=t.previousSibling,a=c.getAttribute(&quot;data-cfemail&quot;);if(a){for(e=&quot;&quot;,r=parseInt(a.substr(0,2),16),n=2;a.length-n;n+=2)i=parseInt(a.substr(n,2),16)^r,e+=String.fromCharCode(i);e=document.createTextNode(e),c.parentNode.replaceChild(e,c)}}}catch(u){}}();/* ]]&gt; */&lt;/script&gt;\nFormat settings, CABAC: Yes\nFormat settings, ReFrames: 8 frames\nCodec ID: avc1\nCodec ID/Info: Advanced Video Coding\nDuration: 2h 2mn\nBit rate: 1 719 Kbps\nMaximum bit rate: 5 056 Kbps\nWidth: 720 pixels\nHeight: 416 pixels\nDisplay aspect ratio: 1.731\nFrame rate mode: Constant\nFrame rate: 25.000 fps\nColor space: YUV\nChroma subsampling: 4:2:0\nBit depth: 8 bits\nScan type: Progressive\nBits/(Pixel*Frame): 0.230\nStream size: 1.47 GiB (93%)\nWriting library: x264 core 129 r2245 bc13772\n\nAudio\nID: 2\nFormat: AAC\nFormat/Info: Advanced Audio Codec\nFormat profile: LC\nCodec ID: 40\nDuration: 2h 2mn\nBit rate mode: Variable\nBit rate: 128 Kbps\nMaximum bit rate: 146 Kbps\nChannel(s): 2 channels\nChannel positions: Front: L R\nSampling rate: 48.0 KHz\nCompression mode: Lossy\nDelay relative to video: 80ms\nStream size: 112 MiB (7%)\nLanguage: English","torrent":{"xt":"urn:btih:f7b70b207b1c3c500ccf7af304461f168c7f8d96","amp;dn":"Rugby.Union.Warriors.v.Ulster.2013.02.22.pdtv.x264","amp;tr":["udp%3A%2F%2Ftracker.openbittorrent.com%3A80","udp%3A%2F%2Fopen.demonii.com%3A1337","udp%3A%2F%2Ftracker.coppersurfer.tk%3A6969","udp%3A%2F%2Fexodus.desync.com%3A6969"],"infoHash":"f7b70b207b1c3c500ccf7af304461f168c7f8d96","infoHashBuffer":{"type":"Buffer","data":[247,183,11,32,123,28,60,80,12,207,122,243,4,70,31,22,140,127,141,150]},"announce":[],"urlList":[]}}